<svg width="16" height="20" viewBox="0 0 16 20" fill="none" xmlns="http://www.w3.org/2000/svg">
<path d="M5.70801 16.344V16.709C5.70801 17.974 6.73401 19 8.00001 19V19C9.26601 19 10.292 17.974 10.292 16.708V16.343" stroke="#2A355A" stroke-linecap="round" stroke-linejoin="round"/>
<path d="M9.83299 3.751V2.833C9.83299 1.821 9.01299 1 7.99999 1V1C6.98699 1 6.16699 1.821 6.16699 2.833V3.751" stroke="#2A355A" stroke-linecap="round" stroke-linejoin="round"/>
<path fill-rule="evenodd" clip-rule="evenodd" d="M2.563 8.188V8.188C2.563 5.685 4.592 3.657 7.094 3.657H8.907C11.41 3.657 13.438 5.686 13.438 8.188V8.188V10.985C13.438 11.515 13.649 12.024 14.024 12.399L14.665 13.04C15.04 13.415 15.251 13.924 15.251 14.454V14.454C15.251 15.498 14.405 16.344 13.361 16.344H2.64C1.596 16.344 0.75 15.498 0.75 14.454V14.454C0.75 13.924 0.961 13.415 1.336 13.04L1.977 12.399C2.352 12.024 2.563 11.515 2.563 10.985V8.188Z" stroke="#2A355A" stroke-linecap="round" stroke-linejoin="round"/>
</svg>
