<svg width="18" height="16" viewBox="0 0 18 16" fill="none" xmlns="http://www.w3.org/2000/svg">
<path d="M10.3794 6.62058C11.1413 7.38243 11.1413 8.61763 10.3794 9.37947C9.61757 10.1413 8.38237 10.1413 7.62053 9.37947C6.85868 8.61762 6.85868 7.38242 7.62053 6.62058C8.38237 5.85873 9.61758 5.85873 10.3794 6.62058" stroke="#8591AE" stroke-linecap="round" stroke-linejoin="round"/>
<path d="M16.8741 6.75841C17.5598 7.44411 17.5598 8.55584 16.8741 9.24154C16.1884 9.92723 15.0767 9.92723 14.391 9.24154C13.7053 8.55584 13.7053 7.44411 14.391 6.75841C15.0767 6.07272 16.1884 6.07272 16.8741 6.75841" stroke="#8591AE" stroke-linecap="round" stroke-linejoin="round"/>
<path d="M3.60906 6.75841C4.29475 7.44411 4.29475 8.55584 3.60906 9.24154C2.92336 9.92723 1.81163 9.92723 1.12593 9.24154C0.440238 8.55584 0.440238 7.44411 1.12593 6.75841C1.81163 6.07272 2.92336 6.07272 3.60906 6.75841" stroke="#8591AE" stroke-linecap="round" stroke-linejoin="round"/>
<path d="M13.5574 1.01427C14.2431 1.69997 14.2431 2.8117 13.5574 3.4974C12.8717 4.18309 11.76 4.18309 11.0743 3.4974C10.3886 2.8117 10.3886 1.69997 11.0743 1.01427C11.76 0.328576 12.8717 0.328576 13.5574 1.01427" stroke="#8591AE" stroke-linecap="round" stroke-linejoin="round"/>
<path d="M6.92573 12.5026C7.61142 13.1883 7.61142 14.3 6.92573 14.9857C6.24003 15.6714 5.1283 15.6714 4.4426 14.9857C3.75691 14.3 3.75691 13.1883 4.4426 12.5026C5.1283 11.8169 6.24003 11.8169 6.92573 12.5026" stroke="#8591AE" stroke-linecap="round" stroke-linejoin="round"/>
<path d="M6.92573 1.01427C7.61142 1.69997 7.61142 2.8117 6.92573 3.4974C6.24003 4.18309 5.1283 4.18309 4.4426 3.4974C3.75691 2.8117 3.75691 1.69997 4.4426 1.01427C5.1283 0.328576 6.24003 0.328576 6.92573 1.01427" stroke="#8591AE" stroke-linecap="round" stroke-linejoin="round"/>
<path d="M13.5574 12.5026C14.2431 13.1883 14.2431 14.3 13.5574 14.9857C12.8717 15.6714 11.76 15.6714 11.0743 14.9857C10.3886 14.3 10.3886 13.1883 11.0743 12.5026C11.76 11.8169 12.8717 11.8169 13.5574 12.5026" stroke="#8591AE" stroke-linecap="round" stroke-linejoin="round"/>
<path d="M6.55833 12.225L8.025 9.68332" stroke="#8591AE" stroke-linecap="round" stroke-linejoin="round"/>
<path d="M6.55833 3.77499L8.025 6.31666" stroke="#8591AE" stroke-linecap="round" stroke-linejoin="round"/>
<path d="M13.875 8.00001H10.95" stroke="#8591AE" stroke-linecap="round" stroke-linejoin="round"/>
</svg>
